# File created by Blade
# Date/Time:  Thu Jan 15 17:55:17 2015
#---------------------------------------------------------
:version 1.10
:name HOM
:units
  mass 1.0
  length 1.000000
  angle deg
:documentation
     Acclaim Skeleton File
:root
   axis xyz
   order TX TY TZ RX RY RZ
   position 0.000000 0.000000 0.000000
   orientation 0 0 0
:bonedata
   begin
      id 1
      name Spine_dum
      direction 0.000000 1.000000 0.000000
      length 5.015652
      axis 0.0 0.0 0.0 xyz
   end
   begin
      id 2
      name LeftUpLeg_dum
      direction 1.000000 0.000000 0.000000
      length 4.275145
      axis 0.0 0.0 0.0 xyz
   end
   begin
      id 3
      name RightUpLeg_dum
      direction -1.000000 0.000000 0.000000
      length 4.275145
      axis 0.0 0.0 0.0 xyz
   end
   begin
      id 4
      name Spine
      direction 0.000000 1.000000 0.000000
      length 0.000000
      axis 0.0 0.0 0.0 xyz
      dof rx ry rz
   end
   begin
      id 5
      name Spine_dum1
      direction 0.000000 1.000000 0.000000
      length 15.980521
      axis 0.0 0.0 0.0 xyz
   end
   begin
      id 6
      name Spine_dum2
      direction 0.000000 1.000000 0.000000
      length 12.162712
      axis 0.0 0.0 0.0 xyz
   end
   begin
      id 7
      name Spine_dum3
      direction 0.000000 1.000000 0.000000
      length 12.162712
      axis 0.0 0.0 0.0 xyz
   end
   begin
      id 8
      name Head
      direction 0.000000 1.000000 0.000000
      length 4.527550
      axis 0.0 0.0 0.0 xyz
      dof rx ry rz
   end
   begin
      id 9
      name LeftShoulder
      direction 1.000000 0.000000 0.000000
      length 7.205867
      axis 0.0 0.0 -90.0 xyz
      dof rx ry rz
   end
   begin
      id 10
      name LeftArm
      direction 1.000000 0.000000 0.000000
      length 10.786708
      axis 0.0 0.0 -90.0 xyz
      dof rx ry rz
   end
   begin
      id 11
      name LeftForeArm
      direction 1.000000 0.000000 0.000000
      length 7.946034
      axis 0.0 0.0 -90.0 xyz
      dof rz ry rx
   end
   begin
      id 12
      name LeftHand
      direction 0.000000 0.000000 0.000000
      length 0.000000
      axis 0.0 0.0 -90.0 xyz
      dof rx ry rz
   end
   begin
      id 13
      name LeftHand_dum1
      direction 0.000000 0.000000 0.000000
      length 0.000000
      axis 0.0 0.0 -90.0 xyz
   end
   begin
      id 14
      name LeftHand_dum2
      direction 1.000000 0.000000 0.000000
      length 3.937000
      axis 0.0 0.0 -90.0 xyz
   end
   begin
      id 15
      name LeftHandThumb1
      direction 0.000000 0.000000 1.000000
      length 3.937000
      axis 0.0 0.0 -90.0 xyz
      dof rx ry rz
   end
   begin
      id 16
      name RightShoulder
      direction -1.000000 0.000000 0.000000
      length 7.205867
      axis 0.0 0.0 90.0 xyz
      dof rx ry rz
   end
   begin
      id 17
      name RightArm
      direction -1.000000 0.000000 0.000000
      length 10.786708
      axis 0.0 0.0 90.0 xyz
      dof rx ry rz
   end
   begin
      id 18
      name RightForeArm
      direction -1.000000 0.000000 0.000000
      length 7.946034
      axis 0.0 0.0 90.0 xyz
      dof rz ry rx
   end
   begin
      id 19
      name RightHand
      direction 0.000000 0.000000 0.000000
      length 0.000000
      axis 0.0 0.0 90.0 xyz
      dof rx ry rz
   end
   begin
      id 20
      name RightHand_dum1
      direction 0.000000 0.000000 0.000000
      length 0.000000
      axis 0.0 0.0 90.0 xyz
   end
   begin
      id 21
      name RightHand_dum2
      direction -1.000000 0.000000 0.000000
      length 3.937000
      axis 0.0 0.0 90.0 xyz
   end
   begin
      id 22
      name RightHandThumb1
      direction 0.000000 0.000000 1.000000
      length 3.937000
      axis 0.0 0.0 90.0 xyz
      dof rx ry rz
   end
   begin
      id 23
      name LeftUpLeg
      direction 0.000000 -1.000000 0.000000
      length 17.046659
      axis 0.0 0.0 0.0 xyz
      dof rx ry rz
   end
   begin
      id 24
      name LeftLeg
      direction 0.000000 -1.000000 0.000000
      length 17.458438
      axis 0.0 0.0 0.0 xyz
      dof rx ry rz
   end
   begin
      id 25
      name LeftFoot
      direction 0.000000 -0.258819 0.965926
      length 5.099406
      axis 15.0 0.0 0.0 xyz
      dof rx ry rz
   end
   begin
      id 26
      name LeftToeBase
      direction 0.000000 0.000000 1.000000
      length 2.952750
      axis 0.0 0.0 0.0 xyz
      dof rx ry rz
   end
   begin
      id 27
      name RightUpLeg
      direction 0.000000 -1.000000 0.000000
      length 17.046659
      axis 0.0 0.0 0.0 xyz
      dof rx ry rz
   end
   begin
      id 28
      name RightLeg
      direction 0.000000 -1.000000 0.000000
      length 17.458438
      axis 0.0 0.0 0.0 xyz
      dof rx ry rz
   end
   begin
      id 29
      name RightFoot
      direction 0.000000 -0.258819 0.965926
      length 5.099406
      axis 15.0 0.0 0.0 xyz
      dof rx ry rz
   end
   begin
      id 30
      name RightToeBase
      direction 0.000000 0.000000 1.000000
      length 2.952750
      axis 0.0 0.0 0.0 xyz
      dof rx ry rz
   end
:hierarchy
   begin
      root Spine_dum LeftUpLeg_dum RightUpLeg_dum
      Spine_dum Spine
      LeftUpLeg_dum LeftUpLeg
      RightUpLeg_dum RightUpLeg
      Spine Spine_dum1 Spine_dum2 Spine_dum3
      Spine_dum1 Head
      Spine_dum2 LeftShoulder
      Spine_dum3 RightShoulder
      LeftShoulder LeftArm
      LeftArm LeftForeArm
      LeftForeArm LeftHand
      LeftHand LeftHand_dum1 LeftHand_dum2
      LeftHand_dum1 LeftHandThumb1
      RightShoulder RightArm
      RightArm RightForeArm
      RightForeArm RightHand
      RightHand RightHand_dum1 RightHand_dum2
      RightHand_dum1 RightHandThumb1
      LeftUpLeg LeftLeg
      LeftLeg LeftFoot
      LeftFoot LeftToeBase
      RightUpLeg RightLeg
      RightLeg RightFoot
      RightFoot RightToeBase
   end

# File created by Blade
# Date/Time:  Thu Jan 15 17:55:09 2015
# Frame Rate: 120.000 fps
#------------------------------------------------------
:FULLY-SPECIFIED
:DEGREES
783
root 7.731986 35.792023 -10.644309 0.579766 1.894901 3.117050
Spine -1.045527 -8.144303 -10.277186
Head -7.566429 -5.398989 21.810653
LeftShoulder -26.805103 -3.848000 5.213741
LeftArm 18.939744 -5.849927 -77.551112
LeftForeArm 0.000000 13.317827 29.085945
LeftHand 8.231887 -0.000000 5.244642
LeftHandThumb1 -26.253704 33.147579 0.000000
RightShoulder 5.521013 11.306416 3.427616
RightArm 21.530152 7.593978 67.136586
RightForeArm -0.000000 -28.803348 19.435788
RightHand 0.518386 -0.000000 -5.773786
RightHandThumb1 -24.326973 -32.862282 -0.000000
LeftUpLeg -20.141721 -13.164739 -0.309168
LeftLeg 45.946929 -0.000000 -0.000000
LeftFoot -28.441832 27.127558 -15.094630
LeftToeBase 13.427428 -0.000000 -0.000000
RightUpLeg 3.187514 -7.927086 4.837516
RightLeg 1.955919 -0.000000 -0.000000
RightFoot -24.725012 -30.808510 8.393413
RightToeBase 22.504156 -0.000000 -0.000000
784
root 7.778651 35.798815 -10.600703 0.784452 2.141309 3.184142
Spine -1.213838 -8.711353 -10.455702
Head -7.599402 -5.513359 21.924530
LeftShoulder -26.698443 -3.813748 5.335843
LeftArm 19.138047 -5.539903 -77.727987
LeftForeArm -0.000000 13.114174 29.999553
LeftHand 8.237853 -0.000000 5.436434
LeftHandThumb1 -26.253704 33.147579 0.000000
RightShoulder 4.961810 10.638111 3.606694
RightArm 20.576618 8.263012 68.052661
RightForeArm -0.000000 -27.916309 19.359401
RightHand 0.422889 -0.000000 -5.923793
RightHandThumb1 -24.326973 -32.862282 -0.000000
LeftUpLeg -18.941092 -12.945485 -0.224547
LeftLeg 43.795369 -0.000000 -0.000000
LeftFoot -28.405122 26.757785 -15.135132
LeftToeBase 13.566151 -0.000000 -0.000000
RightUpLeg 3.089544 -7.990362 4.718564
RightLeg 1.929287 -0.000000 -0.000000
RightFoot -24.799474 -30.855993 8.569567
RightToeBase 22.399694 -0.000000 -0.000000
785
root 7.828153 35.806975 -10.557013 0.979413 2.379453 3.264160
Spine -1.373314 -9.308882 -10.645159
Head -7.580762 -5.598933 22.050431
LeftShoulder -26.609242 -3.770143 5.437717
LeftArm 19.263177 -5.188109 -77.828592
LeftForeArm -0.000000 12.896922 31.032775
LeftHand 8.141997 -0.000000 5.444878
LeftHandThumb1 -26.253704 33.147579 0.000000
RightShoulder 4.493212 10.093302 3.849803
RightArm 19.437283 9.135879 68.960547
RightForeArm 0.000000 -27.448632 19.414151
RightHand 0.531489 -0.000000 -6.037447
RightHandThumb1 -24.326973 -32.862282 -0.000000
LeftUpLeg -17.729497 -12.687639 -0.148262
LeftLeg 41.533313 -0.000000 -0.000000
LeftFoot -28.265916 26.471172 -15.124864
LeftToeBase 13.932286 -0.000000 -0.000000
RightUpLeg 3.004289 -8.082321 4.581961
RightLeg 1.896106 -0.000000 -0.000000
RightFoot -24.881243 -30.890695 8.731109
RightToeBase 22.356463 -0.000000 -0.000000
786
root 7.876877 35.812174 -10.520289 1.222784 2.549070 3.334562
Spine -1.578582 -9.872820 -10.810956
Head -7.563200 -5.584621 22.150489
LeftShoulder -26.511718 -3.733905 5.579597
LeftArm 19.322216 -5.020053 -78.007171
LeftForeArm -0.000000 13.112023 31.967655
LeftHand 8.322219 0.000000 5.337296
LeftHandThumb1 -26.253704 33.147579 0.000000
RightShoulder 3.968296 9.390626 4.092231
RightArm 18.419729 9.648596 69.685182
RightForeArm -0.000000 -26.853526 19.659336
RightHand 0.506972 -0.000000 -6.042339
RightHandThumb1 -24.326973 -32.862282 -0.000000
LeftUpLeg -16.586646 -12.308228 -0.063731
LeftLeg 39.229180 -0.000000 -0.000000
LeftFoot -27.996017 26.214064 -15.264922
LeftToeBase 14.225137 -0.000000 -0.000000
RightUpLeg 2.821502 -8.099883 4.467483
RightLeg 1.932067 -0.000000 -0.000000
RightFoot -25.028225 -30.955353 8.846835
RightToeBase 22.459758 -0.000000 -0.000000
787
root 7.937600 35.817356 -10.470203 1.352798 2.797652 3.417117
Spine -1.670686 -10.547709 -10.953336
Head -7.498498 -5.551832 22.177147
LeftShoulder -26.494316 -3.666299 5.572858
LeftArm 19.369066 -4.715844 -78.035668
LeftForeArm 0.000000 13.006742 33.082115
LeftHand 8.367754 -0.000000 5.419448
LeftHandThumb1 -26.253704 33.147579 0.000000
RightShoulder 3.535422 8.708817 4.310038
RightArm 17.274142 10.087556 70.313524
RightForeArm -0.000000 -26.418165 20.077986
RightHand 0.577596 -0.000000 -5.964775
RightHandThumb1 -24.326973 -32.862282 -0.000000
LeftUpLeg -15.325226 -12.073225 -0.045653
LeftLeg 36.886977 -0.000000 -0.000000
LeftFoot -27.489874 26.217518 -15.228079
LeftToeBase 14.560808 -0.000000 -0.000000
RightUpLeg 2.819631 -8.281041 4.299765
RightLeg 1.884505 -0.000000 -0.000000
RightFoot -25.104611 -30.929999 8.933081
RightToeBase 22.427037 -0.000000 -0.000000
788
root 7.989715 35.818954 -10.439186 1.598167 2.902893 3.462276
Spine -1.861547 -11.095693 -11.079051
Head -7.474358 -5.487425 22.282616
LeftShoulder -26.497087 -3.592574 5.651921
LeftArm 19.418922 -4.395581 -78.125418
LeftForeArm -0.000000 12.793876 34.141948
LeftHand 8.439696 -0.000000 5.187353
LeftHandThumb1 -26.253704 33.147579 0.000000
RightShoulder 3.087165 8.133949 4.561614
RightArm 16.027500 10.387282 70.858409
RightForeArm -0.000000 -25.982270 20.564562
RightHand 0.665604 -0.000000 -5.772617
RightHandThumb1 -24.326973 -32.862282 -0.000000
LeftUpLeg -14.241148 -11.669848 0.064817
LeftLeg 34.564192 -0.000000 -0.000000
LeftFoot -26.755299 26.113904 -15.031001
LeftToeBase 15.164464 -0.000000 -0.000000
RightUpLeg 2.585029 -8.243945 4.209733
RightLeg 1.996943 -0.000000 -0.000000
RightFoot -25.305009 -31.030941 9.088543
RightToeBase 22.543134 -0.000000 -0.000000
789
root 8.055392 35.821822 -10.393139 1.760037 3.085220 3.504440
Spine -1.984016 -11.758942 -11.158276
Head -7.377080 -5.366971 22.340391
LeftShoulder -26.527872 -3.546143 5.672403
LeftArm 19.350920 -4.059600 -78.134908
LeftForeArm -0.000000 12.845440 35.223744
LeftHand 8.385124 0.000000 5.429960
LeftHandThumb1 -26.253704 33.147579 0.000000
RightShoulder 2.661118 7.531543 4.772873
RightArm 14.788895 10.701472 71.386358
RightForeArm -0.000000 -25.708197 21.042565
RightHand 1.013765 -0.000000 -5.711967
RightHandThumb1 -24.326973 -32.862282 -0.000000
LeftUpLeg -13.100961 -11.405825 0.094623
LeftLeg 32.280498 -0.000000 -0.000000
LeftFoot -25.989869 26.208981 -15.056297
LeftToeBase 15.876819 -0.000000 -0.000000
RightUpLeg 2.574871 -8.094872 4.103619
RightLeg 1.889670 -0.000000 -0.000000
RightFoot -25.424423 -31.316401 9.300270
RightToeBase 22.576218 -0.000000 -0.000000
790
root 8.125302 35.822229 -10.345074 1.857788 3.185788 3.548019
Spine -2.042860 -12.324103 -11.241463
Head -7.319750 -5.258102 22.381079
LeftShoulder -26.524867 -3.585891 5.727842
LeftArm 19.103216 -3.537805 -78.011213
LeftForeArm -0.000000 12.724594 36.385532
LeftHand 8.303730 0.000000 5.563971
LeftHandThumb1 -26.253704 33.147579 0.000000
RightShoulder 2.237234 6.867147 4.964679
RightArm 13.587139 10.656590 71.784307
RightForeArm -0.000000 -25.266209 21.575896
RightHand 1.137556 -0.000000 -5.817780
RightHandThumb1 -24.326973 -32.862282 -0.000000
LeftUpLeg -11.798163 -11.068060 0.123304
LeftLeg 29.832485 -0.000000 -0.000000
LeftFoot -24.894710 26.169501 -14.616482
LeftToeBase 16.322155 -0.000000 -0.000000
RightUpLeg 2.533770 -8.160167 3.956020
RightLeg 1.968582 -0.000000 -0.000000
RightFoot -25.586818 -31.327639 9.407305
RightToeBase 22.614289 -0.000000 -0.000000
791
root 8.192527 35.821706 -10.306071 2.029244 3.261413 3.611186
Spine -2.178078 -12.890295 -11.355606
Head -7.188357 -5.111230 22.482257
LeftShoulder -26.614881 -3.408882 5.697803
LeftArm 19.176631 -3.156343 -78.016714
LeftForeArm 0.000000 12.844892 37.395613
LeftHand 8.318047 -0.000000 5.483237
LeftHandThumb1 -26.253704 33.147579 0.000000
RightShoulder 1.781473 6.197362 5.190068
RightArm 12.432007 10.376905 72.115170
RightForeArm -0.000000 -24.828498 22.031135
RightHand 1.517228 -0.000000 -6.096660
RightHandThumb1 -24.326973 -32.862282 -0.000000
LeftUpLeg -10.834714 -10.659351 0.124576
LeftLeg 27.826724 -0.000000 -0.000000
LeftFoot -24.893299 25.305388 -16.060029
LeftToeBase 17.338985 -0.000000 -0.000000
RightUpLeg 2.228675 -8.732959 3.773987
RightLeg 2.383118 -0.000000 -0.000000
RightFoot -25.859512 -30.821615 9.428360
RightToeBase 22.740239 -0.000000 -0.000000
792
root 8.261506 35.822383 -10.258266 2.101384 3.318968 3.652729
Spine -2.222239 -13.455100 -11.448031
Head -7.051520 -4.961165 22.526467
LeftShoulder -26.745859 -3.319580 5.697353
LeftArm 19.112630 -2.693692 -77.983293
LeftForeArm -0.000000 12.902544 38.358510
LeftHand 8.341101 -0.000000 5.674449
LeftHandThumb1 -26.253704 33.147579 0.000000
RightShoulder 1.388253 5.514961 5.412287
RightArm 11.277780 9.796702 72.341793
RightForeArm -0.000000 -24.336364 22.508346
RightHand 1.807766 -0.000000 -6.741758
RightHandThumb1 -24.326973 -32.862282 -0.000000
LeftUpLeg -9.744859 -10.234450 0.130492
LeftLeg 25.725056 -0.000000 -0.000000
LeftFoot -25.722209 24.301091 -17.914351
LeftToeBase 18.055268 -0.000000 -0.000000
RightUpLeg 2.176046 -8.744390 3.636454
RightLeg 2.523855 -0.000000 -0.000000
RightFoot -26.059896 -30.865742 9.594777
RightToeBase 22.793496 -0.000000 -0.000000
793
root 8.333790 35.820761 -10.208880 2.158190 3.286664 3.683248
Spine -2.265780 -13.926092 -11.524824
Head -6.916762 -4.807845 22.611272
LeftShoulder -26.911573 -3.249374 5.691439
LeftArm 19.040959 -2.254673 -77.940392
LeftForeArm -0.000000 13.024047 39.242561
LeftHand 8.466514 0.000000 5.715099
LeftHandThumb1 -26.253704 33.147579 0.000000
RightShoulder 0.932708 4.661780 5.618071
RightArm 10.368404 9.032083 72.535763
RightForeArm 0.000000 -23.868815 22.939254
RightHand 1.975832 -0.000000 -6.893658
RightHandThumb1 -24.326973 -32.862282 -0.000000
LeftUpLeg -8.659979 -9.600706 0.119561
LeftLeg 23.739271 -0.000000 -0.000000
LeftFoot -25.813867 23.204171 -17.803502
LeftToeBase 19.402300 -0.000000 -0.000000
RightUpLeg 2.111622 -8.676224 3.497203
RightLeg 2.715375 -0.000000 -0.000000
RightFoot -26.292790 -30.880365 9.784761
RightToeBase 22.791768 -0.000000 -0.000000
794
root 8.415904 35.818167 -10.170290 2.223303 3.290299 3.709456
Spine -2.272832 -14.480612 -11.565122
Head -6.812504 -4.566622 22.665917
LeftShoulder -27.090491 -3.163333 5.630479
LeftArm 18.958968 -1.817521 -77.890007
LeftForeArm -0.000000 13.256172 40.167868
LeftHand 8.461685 -0.000000 6.050574
LeftHandThumb1 -26.253704 33.147579 0.000000
RightShoulder 0.553391 3.951386 5.843831
RightArm 9.411756 8.154929 72.624751
RightForeArm -0.000000 -23.431682 23.340954
RightHand 2.181396 -0.000000 -7.203867
RightHandThumb1 -24.326973 -32.862282 -0.000000
LeftUpLeg -7.698007 -9.068568 0.080479
LeftLeg 21.936786 -0.000000 -0.000000
LeftFoot -25.785805 22.102687 -17.695154
LeftToeBase 19.745989 -0.000000 -0.000000
RightUpLeg 1.954837 -8.722897 3.342001
RightLeg 3.052447 -0.000000 -0.000000
RightFoot -26.578943 -30.821704 9.952171
RightToeBase 22.845401 -0.000000 -0.000000
795
root 8.492314 35.817773 -10.125598 2.213136 3.166048 3.731288
Spine -2.236348 -14.886138 -11.655880
Head -6.669790 -4.379908 22.784965
LeftShoulder -27.273937 -3.048629 5.599630
LeftArm 18.899781 -1.380418 -77.841366
LeftForeArm -0.000000 13.668256 40.961919
LeftHand 8.568319 0.000000 6.268137
LeftHandThumb1 -26.253704 33.147579 0.000000
RightShoulder 0.142936 3.151168 6.149190
RightArm 8.623014 7.495593 72.712738
RightForeArm -0.000000 -23.323612 23.703262
RightHand 2.582597 -0.000000 -7.211887
RightHandThumb1 -24.326973 -32.862282 -0.000000
LeftUpLeg -6.664234 -8.453935 0.039377
LeftLeg 20.153264 -0.000000 -0.000000
LeftFoot -25.861300 21.309452 -18.150321
LeftToeBase 19.910925 -0.000000 -0.000000
RightUpLeg 1.894080 -8.453375 3.200135
RightLeg 3.349536 -0.000000 -0.000000
RightFoot -26.919811 -30.942909 10.248120
RightToeBase 22.997206 -0.000000 -0.000000
